<?xml version="1.0" encoding="UTF-8" standalone="no"?> <!-- Created with Vectornator for iOS (http://vectornator.io/) --><!DOCTYPE svg PUBLIC "-//W3C//DTD SVG 1.1//EN" "http://www.w3.org/Graphics/SVG/1.1/DTD/svg11.dtd">
<svg style="fill-rule:evenodd;clip-rule:evenodd;stroke-linecap:round;stroke-linejoin:round;" xmlns:vectornator="http://vectornator.io" xmlns:xlink="http://www.w3.org/1999/xlink" xmlns="http://www.w3.org/2000/svg" xml:space="preserve" version="1.1" viewBox="0 0 1190.7 841.995">
<metadata>
<vectornator:setting key="DimensionsVisible" value="1"/>
<vectornator:setting key="SnapToGrid" value="0"/>
<vectornator:setting key="SnapToPoints" value="0"/>
<vectornator:setting key="GuidesVisible" value="1"/>
<vectornator:setting key="RulersVisible" value="1"/>
<vectornator:setting key="SnapToEdges" value="0"/>
<vectornator:setting key="DisplayWhiteBackground" value="0"/>
<vectornator:setting key="SnapToGuides" value="1"/>
<vectornator:setting key="GridSpacing" value="36"/>
<vectornator:setting key="Units" value="Points"/>
<vectornator:setting key="DynamicGuides" value="1"/>
<vectornator:setting key="New" value="1"/>
</metadata>
<defs>
<linearGradient y1="14" id="LinearGradient" x1="235" y2="150" x2="235" gradientUnits="userSpaceOnUse" gradientTransform="matrix(1.63672 0 0 1.94114 196.77 180.55)">
<stop stop-opacity="0" stop-color="#33c239" offset="0.046875"/>
<stop stop-opacity="0.84507" stop-color="#38883b" offset="0.390625"/>
<stop stop-opacity="0.729834" stop-color="#37903b" offset="0.6125"/>
<stop stop-color="#397d3c" offset="0.9995"/>
<stop stop-opacity="0.996473" stop-color="#397e3c" offset="0.9996"/>
<stop stop-opacity="0.322917" stop-color="#35ac3a" offset="0.9997"/>
</linearGradient>
<linearGradient y1="46" id="LinearGradient_2" x1="233" y2="78" x2="233" gradientUnits="userSpaceOnUse" gradientTransform="matrix(1.63672 0 0 1.94114 196.77 180.55)">
<stop stop-color="#33c239" offset="0"/>
<stop stop-opacity="0" stop-color="#c4c4c4" offset="1"/>
</linearGradient>
<linearGradient y1="78" id="LinearGradient_3" x1="253.5" y2="101" x2="253.5" gradientUnits="userSpaceOnUse" gradientTransform="matrix(1.63672 0 0 1.94114 196.77 180.55)">
<stop stop-color="#33c239" offset="0"/>
<stop stop-opacity="0" stop-color="#c4c4c4" offset="1"/>
</linearGradient>
<linearGradient y1="109" id="LinearGradient_4" x1="239.5" y2="127" x2="239.5" gradientUnits="userSpaceOnUse" gradientTransform="matrix(1.63672 0 0 1.94114 196.77 180.55)">
<stop stop-color="#33c239" offset="0"/>
<stop stop-opacity="0" stop-color="#c4c4c4" offset="1"/>
</linearGradient>
</defs>
<g id="Untitled" vectornator:layerName="Untitled">
<path d="M409.543+471.721L547.028+295.725L615.771+295.725L629.519+313.324L753.255+471.721L581.399+471.721L409.543+471.721Z" opacity="1" fill="url(#LinearGradient)"/>
<path stroke="#000000" stroke-width="8" d="M615.771+295.725L547.028+295.725M615.771+295.725L629.519+313.324L753.255+471.721L581.399+471.721L409.543+471.721L547.028+295.725M615.771+295.725L615.771+251.726L615.771+207.726M547.028+295.725L547.028+251.726L547.028+207.726" fill="none" stroke-linecap="butt" opacity="1" stroke-linejoin="miter"/>
<path d="M551.938+264.019L610.86+264.019L610.86+264.019L610.86+298.96L610.86+298.96L551.938+298.96L551.938+298.96L551.938+264.019L551.938+264.019Z" opacity="1" fill="#ffffff"/>
<path d="M553.575+300.901C553.575+283.748+564.567+269.843+578.126+269.843C591.685+269.843+602.677+283.748+602.677+300.901C602.677+318.054+591.685+331.959+578.126+331.959C564.567+331.959+553.575+318.054+553.575+300.901Z" opacity="1" fill="url(#LinearGradient_2)"/>
<path d="M628.864+354.282C628.864+366.611+621.17+376.606+611.679+376.606C602.187+376.606+594.493+366.611+594.493+354.282C594.493+341.954+602.187+331.959+611.679+331.959C621.17+331.959+628.864+341.954+628.864+354.282Z" opacity="1" fill="url(#LinearGradient_3)"/>
<path d="M574.852+409.605C574.852+399.956+581.081+392.135+588.765+392.135C596.448+392.135+602.677+399.956+602.677+409.605C602.677+419.253+596.448+427.075+588.765+427.075C581.081+427.075+574.852+419.253+574.852+409.605Z" opacity="1" fill="url(#LinearGradient_4)"/>
<path d="M541.3+180.55L621.499+180.55C630.086+180.55+637.048+188.807+637.048+198.991L637.048+198.991C637.048+209.176+630.086+217.432+621.499+217.432L541.3+217.432C532.712+217.432+525.751+209.176+525.751+198.991L525.751+198.991C525.751+188.807+532.712+180.55+541.3+180.55Z" opacity="1" fill="#0a0a0a"/>
<path d="M288.642+613.813C294.01+613.813+297.938+614.978+300.426+617.307C303.045+619.481+304.682+622.199+305.336+625.46C305.991+628.566+306.318+632.603+306.318+637.573C306.318+650.617+303.307+662.186+297.284+672.28C291.261+682.219+283.404+689.983+273.715+695.574C264.026+701.009+253.747+703.727+242.879+703.727C227.167+703.727+215.644+698.524+208.312+688.12C200.979+677.715+197.313+664.981+197.313+649.918C197.313+632.06+201.306+615.055+209.294+598.905C217.412+582.599+227.363+569.555+239.147+559.772C251.063+549.833+262.258+544.864+272.733+544.864C287.398+544.864+298.004+548.358+304.551+555.346C311.098+562.179+314.371+572.195+314.371+585.395C314.371+590.053+312.865+594.013+309.854+597.274C306.973+600.536+303.045+602.166+298.069+602.166C294.141+602.166+291.457+600.924+290.017+598.439C288.707+595.954+288.053+592.771+288.053+588.889L288.249+581.435C288.249+578.639+286.94+575.922+284.321+573.282C281.702+570.642+279.28+569.322+277.054+569.322C269.721+569.322+261.669+573.282+252.896+581.202C244.123+588.966+236.725+599.526+230.702+612.881C224.679+626.081+221.667+640.445+221.667+655.975C221.667+663.118+224.024+668.941+228.738+673.445C233.452+677.948+239.409+680.2+246.611+680.2C251.717+680.2+257.086+678.414+262.716+674.842C268.347+671.115+273.06+666.146+276.857+659.934C280.786+653.568+282.75+646.812+282.75+639.669C280.917+639.98+278.232+640.678+274.697+641.765C269.59+643.318+265.204+644.483+261.538+645.259C258.002+646.036+254.467+646.424+250.932+646.424C246.742+646.424+243.599+645.803+241.504+644.561C239.54+643.163+238.558+640.756+238.558+637.34C238.558+635.01+239.016+632.293+239.933+629.187C240.981+626.081+242.224+623.829+243.665+622.432C250.212+620.413+257.741+618.472+266.252+616.608C274.893+614.745+282.357+613.813+288.642+613.813ZM355.822+703.727C342.99+703.727+333.628+700.698+327.736+694.642C321.844+688.586+318.898+680.511+318.898+670.417C318.898+655.664+321.975+641.998+328.129+629.42C334.414+616.841+342.728+606.902+353.072+599.604C363.548+592.15+374.809+588.423+386.855+588.423C394.188+588.423+400.342+590.907+405.317+595.877C410.293+600.691+412.781+607.834+412.781+617.307C412.781+622.742+411.275+627.246+408.264+630.817C405.383+634.234+401.193+637.34+395.694+640.135C390.194+642.775+381.29+646.579+368.982+651.549C357.852+655.897+348.817+659.546+341.877+662.497C341.354+664.826+341.092+667.233+341.092+669.718C341.092+674.066+342.597+677.405+345.609+679.734C348.752+682.063+353.138+683.228+358.768+683.228C362.304+683.228+366.363+682.374+370.946+680.666C375.529+678.958+378.41+676.784+379.588+674.144C384.04+664.516+388.099+659.702+391.765+659.702C397.134+659.702+400.735+660.944+402.568+663.429C404.532+665.758+405.579+668.398+405.71+671.348C404.139+676.318+401.062+681.365+396.479+686.489C391.896+691.459+386.07+695.574+378.999+698.835C371.928+702.096+364.203+703.727+355.822+703.727ZM347.377+641.067C360.34+636.097+371.012+631.516+379.392+627.323C387.772+622.975+391.962+618.705+391.962+614.512C391.962+612.648+391.111+611.173+389.409+610.086C387.706+608.844+385.873+608.222+383.909+608.222C379.981+608.222+375.464+610.008+370.357+613.58C365.381+617.152+360.733+621.5+356.411+626.624C352.09+631.749+349.079+636.563+347.377+641.067ZM456.711+703.727C443.879+703.727+434.517+700.698+428.624+694.642C422.732+688.586+419.786+680.511+419.786+670.417C419.786+655.664+422.863+641.998+429.017+629.42C435.302+616.841+443.617+606.902+453.961+599.604C464.436+592.15+475.697+588.423+487.743+588.423C495.075+588.423+501.229+590.907+506.205+595.877C511.181+600.691+513.669+607.834+513.669+617.307C513.669+627.867+510.33+636.253+503.652+642.464C497.105+648.521+488.79+653.024+478.708+655.975C468.757+658.77+456.776+660.944+442.766+662.497C442.242+664.826+441.98+667.233+441.98+669.718C441.98+674.066+443.486+677.405+446.497+679.734C449.64+682.063+454.026+683.228+459.657+683.228C463.847+683.228+468.626+682.219+473.994+680.2C479.494+678.181+483.684+674.842+486.564+670.184C488.136+667.544+490.1+665.447+492.457+663.894C494.944+662.341+497.301+661.565+499.527+661.565C501.622+661.565+503.324+662.419+504.634+664.127C505.943+665.68+506.598+668.087+506.598+671.348C505.027+676.318+501.95+681.365+497.367+686.489C492.784+691.459+486.957+695.574+479.887+698.835C472.816+702.096+465.091+703.727+456.711+703.727ZM448.265+641.067C452.848+640.911+458.609+640.057+465.549+638.504C472.489+636.951+478.774+634.234+484.404+630.351C490.034+626.314+492.849+621.034+492.849+614.512C492.849+612.648+491.998+611.173+490.296+610.086C488.594+608.844+486.761+608.222+484.797+608.222C480.869+608.222+476.351+610.008+471.245+613.58C466.269+617.152+461.621+621.5+457.3+626.624C452.979+631.749+449.967+636.563+448.265+641.067ZM619.664+594.479C620.188+595.411+620.843+597.197+621.628+599.837C622.545+602.321+623.003+604.263+623.003+605.66C623.003+606.437+622.938+606.902+622.807+607.058C622.152+607.99+620.646+608.766+618.289+609.387C615.933+610.008+614.361+610.397+613.576+610.552C609.517+613.658+603.035+618.627+594.131+625.46C585.359+632.137+578.943+637.029+574.884+640.135C575.145+643.862+577.502+649.608+581.954+657.372C586.406+664.981+591.185+672.202+596.292+679.035C601.398+685.868+604.476+689.284+605.523+689.284C606.701+689.284+608.142+690.449+609.844+692.779C611.677+695.108+612.594+697.204+612.594+699.068C612.594+700.776+611.677+701.863+609.844+702.329C608.666+702.64+606.44+703.183+603.166+703.96C600.024+704.736+597.274+705.124+594.917+705.124C592.822+705.124+591.185+704.814+590.007+704.192C586.995+702.95+582.871+698.835+577.633+691.847C572.527+684.703+567.617+676.784+562.903+668.087C558.189+659.236+555.112+651.626+553.672+645.259C549.482+665.292+546.536+679.035+544.833+686.489C543.131+693.788+541.756+698.524+540.709+700.698C539.661+703.028+538.417+704.192+536.977+704.192L531.478+704.425C522.836+704.425+518.318+700.31+517.926+692.08C520.544+684.47+522.378+678.181+523.425+673.212C536.388+616.22+545.619+573.282+551.118+544.398C550.987+542.068+550.857+538.885+550.726+534.847C550.595+530.654+550.529+527.393+550.529+525.064C550.922+523.045+552.362+521.415+554.85+520.172C557.469+518.93+559.826+518.309+561.921+518.309C565.194+518.309+568.664+519.629+572.33+522.269C575.997+524.909+577.895+528.092+578.026+531.819L560.546+613.114L557.207+629.187C559.957+625.149+564.605+620.18+571.152+614.279C577.83+608.378+584.638+603.098+591.578+598.439C598.649+593.78+604.279+590.985+608.469+590.053C609.517+590.053+611.415+590.442+614.165+591.218C617.046+591.995+618.879+593.082+619.664+594.479ZM704.168+664.36C706.263+665.447+707.966+667.233+709.275+669.718C710.715+672.047+711.435+674.454+711.435+676.939C711.435+679.734+710.257+682.452+707.9+685.092C705.543+687.732+702.859+689.595+699.847+690.682C692.908+691.614+684.462+693.012+674.511+694.875C664.56+696.583+655.852+698.369+648.389+700.233C647.21+701.164+644.657+701.63+640.729+701.63C637.063+701.63+633.789+699.611+630.909+695.574C628.159+691.536+626.784+687.343+626.784+682.995C626.784+681.287+626.98+679.656+627.373+678.104L652.121+563.266C653.561+556.433+655.067+551.929+656.638+549.755C658.34+547.426+661.352+546.261+665.673+546.261C669.208+546.261+672.22+546.727+674.707+547.659C677.326+548.591+678.701+549.988+678.832+551.852L654.085+673.678C676.082+668.553+692.777+665.447+704.168+664.36ZM795.479+694.875C794.694+697.67+792.599+699.534+789.194+700.465C785.921+701.553+783.04+702.096+780.553+702.096C778.327+702.096+776.821+701.397+776.035+700C775.25+698.757+774.595+696.894+774.071+694.409C773.547+691.769+773.155+689.906+772.893+688.819C767.393+693.322+761.697+696.739+755.805+699.068C750.044+701.553+745.199+702.795+741.271+702.795C737.343+702.795+733.284+701.708+729.094+699.534C725.035+697.515+721.5+693.943+718.488+688.819C715.476+683.539+713.971+676.551+713.971+667.854C713.971+659.003+716.262+648.365+720.845+635.942C725.559+623.363+732.236+612.493+740.878+603.331C749.651+594.013+759.864+589.355+771.518+589.355C777.41+589.355+783.237+591.063+788.998+594.479C794.759+597.74+799.473+601.933+803.139+607.058C806.806+612.027+808.704+617.074+808.835+622.199L806.282+630.351C802.616+642.464+799.735+652.791+797.64+661.332C795.545+669.718+794.497+677.249+794.497+683.927C794.497+688.43+794.825+692.08+795.479+694.875ZM773.089+669.252C774.268+665.37+775.708+660.323+777.41+654.111C780.291+642.309+783.04+632.37+785.659+624.295C785.135+622.121+783.957+619.869+782.124+617.54C780.291+615.055+778.392+613.037+776.428+611.484C774.464+609.775+773.089+608.921+772.303+608.921C767.459+608.921+762.287+612.415+756.787+619.403C751.288+626.236+746.64+634.389+742.842+643.862C739.176+653.335+737.343+661.565+737.343+668.553C737.343+671.659+738.129+674.609+739.7+677.405C741.271+680.045+742.973+681.365+744.807+681.365C747.818+681.365+752.597+680.045+759.144+677.405C765.822+674.609+770.47+671.892+773.089+669.252ZM837.502+688.12C836.848+689.983+836.258+691.924+835.735+693.943C835.211+696.428+834.556+698.058+833.771+698.835C833.116+699.767+831.807+700.233+829.842+700.233L824.343+700.465C821.07+700.465+818.451+699.689+816.487+698.136C814.523+696.428+813.41+693.089+813.148+688.12C814.719+683.616+816.028+678.647+817.076+673.212C818.647+665.603+820.218+658.071+821.79+650.617C823.361+643.163+824.867+635.942+826.307+628.954C828.271+619.792+831.152+606.126+834.949+587.957C838.746+569.633+841.692+555.113+843.787+544.398C843.787+542.068+844.311+538.807+845.359+534.614C846.406+530.422+847.977+526.695+850.072+523.433C852.167+520.017+854.721+518.309+857.732+518.309C860.744+518.309+863.559+519.629+866.178+522.269C868.796+524.753+870.171+527.937+870.302+531.819L855.572+600.768C861.988+592.072+869.844+587.724+879.141+587.724C885.295+587.724+890.729+589.743+895.442+593.78C900.156+597.818+903.822+603.176+906.441+609.853C909.06+616.531+910.369+623.674+910.369+631.283C910.369+642.775+908.471+653.956+904.673+664.826C901.007+675.697+895.246+684.703+887.39+691.847C879.664+698.835+870.171+702.329+858.911+702.329C855.637+702.329+851.578+700.931+846.733+698.136C842.02+695.341+838.943+692.002+837.502+688.12ZM842.216+668.786C843.918+672.358+846.472+675.541+849.876+678.336C853.28+681.132+856.357+682.529+859.107+682.529C865.261+682.529+870.499+680.122+874.82+675.308C879.271+670.339+882.61+664.205+884.836+656.906C887.062+649.608+888.175+642.387+888.175+635.243C888.175+617.385+883.789+608.455+875.016+608.455C869.255+608.455+863.886+610.707+858.911+615.211C854.066+619.714+850.792+625.77+849.09+633.38L842.216+668.786ZM951.845+622.199C951.976+625.305+953.089+627.789+955.184+629.653C957.279+631.361+960.749+633.457+965.594+635.942C970.7+638.582+974.89+641.144+978.164+643.629C981.437+645.958+984.253+649.375+986.609+653.878C988.966+658.382+990.145+664.05+990.145+670.883C990.145+682.063+986.609+690.605+979.539+696.506C972.599+702.251+963.172+705.124+951.256+705.124C945.364+705.124+939.799+703.882+934.562+701.397C929.455+699.068+925.396+696.117+922.384+692.546C919.373+688.974+917.802+685.402+917.671+681.831C917.671+677.948+918.849+674.842+921.206+672.513C923.694+670.184+927.164+668.631+931.615+667.854C931.746+670.96+933.056+673.911+935.544+676.706C938.031+679.346+940.912+681.52+944.186+683.228C947.59+684.781+950.536+685.558+953.024+685.558C957.999+685.558+961.404+684.548+963.237+682.529C965.201+680.355+966.183+677.405+966.183+673.678C966.183+669.64+965.07+665.836+962.844+662.264C960.618+658.537+957.214+655.819+952.631+654.111C945.56+651.471+939.93+647.201+935.74+641.3C931.55+635.243+929.455+629.031+929.455+622.665C929.455+611.484+932.663+602.865+939.079+596.809C945.495+590.752+954.53+587.724+966.183+587.724C972.075+587.724+977.313+588.966+981.896+591.451C986.478+593.936+990.014+597.041+992.502+600.768C994.989+604.495+996.233+608.145+996.233+611.717C996.233+615.444+994.924+618.549+992.305+621.034C989.817+623.363+986.348+624.916+981.896+625.693C981.634+620.723+980.128+616.531+977.378+613.114C974.76+609.698+971.682+607.99+968.147+607.99C963.957+607.99+960.16+609.387+956.756+612.182C953.482+614.978+951.845+618.316+951.845+622.199Z" opacity="1" fill="#000000"/>
</g>
</svg>
